<svg xmlns="http://www.w3.org/2000/svg" width="32" height="32" viewBox="0 0 32 32">
  <rect width="32" height="32" rx="4" fill="#111111"/>
  <!-- 8-bit brain (pixel art) -->
  <!-- Top row -->
  <rect x="10" y="4" width="2" height="2" fill="#33C3F0"/>
  <rect x="12" y="4" width="2" height="2" fill="#33C3F0"/>
  <rect x="14" y="4" width="2" height="2" fill="#33C3F0"/>
  <rect x="16" y="4" width="2" height="2" fill="#33C3F0"/>
  <!-- Row 2 -->
  <rect x="8" y="6" width="2" height="2" fill="#33C3F0"/>
  <rect x="10" y="6" width="2" height="2" fill="#5DD4FF"/>
  <rect x="12" y="6" width="2" height="2" fill="#5DD4FF"/>
  <rect x="14" y="6" width="2" height="2" fill="#5DD4FF"/>
  <rect x="16" y="6" width="2" height="2" fill="#5DD4FF"/>
  <rect x="18" y="6" width="2" height="2" fill="#33C3F0"/>
  <!-- Row 3 -->
  <rect x="6" y="8" width="2" height="2" fill="#33C3F0"/>
  <rect x="8" y="8" width="2" height="2" fill="#5DD4FF"/>
  <rect x="10" y="8" width="2" height="2" fill="#33C3F0"/>
  <rect x="12" y="8" width="2" height="2" fill="#5DD4FF"/>
  <rect x="14" y="8" width="2" height="2" fill="#33C3F0"/>
  <rect x="16" y="8" width="2" height="2" fill="#5DD4FF"/>
  <rect x="18" y="8" width="2" height="2" fill="#5DD4FF"/>
  <rect x="20" y="8" width="2" height="2" fill="#33C3F0"/>
  <!-- Row 4 -->
  <rect x="6" y="10" width="2" height="2" fill="#33C3F0"/>
  <rect x="8" y="10" width="2" height="2" fill="#5DD4FF"/>
  <rect x="10" y="10" width="2" height="2" fill="#5DD4FF"/>
  <rect x="12" y="10" width="2" height="2" fill="#33C3F0"/>
  <rect x="14" y="10" width="2" height="2" fill="#5DD4FF"/>
  <rect x="16" y="10" width="2" height="2" fill="#5DD4FF"/>
  <rect x="18" y="10" width="2" height="2" fill="#5DD4FF"/>
  <rect x="20" y="10" width="2" height="2" fill="#33C3F0"/>
  <!-- Row 5 - brain middle -->
  <rect x="6" y="12" width="2" height="2" fill="#33C3F0"/>
  <rect x="8" y="12" width="2" height="2" fill="#5DD4FF"/>
  <rect x="10" y="12" width="2" height="2" fill="#5DD4FF"/>
  <rect x="12" y="12" width="2" height="2" fill="#5DD4FF"/>
  <rect x="14" y="12" width="2" height="2" fill="#5DD4FF"/>
  <rect x="16" y="12" width="2" height="2" fill="#5DD4FF"/>
  <rect x="18" y="12" width="2" height="2" fill="#33C3F0"/>
  <!-- Row 6 -->
  <rect x="8" y="14" width="2" height="2" fill="#33C3F0"/>
  <rect x="10" y="14" width="2" height="2" fill="#33C3F0"/>
  <rect x="12" y="14" width="2" height="2" fill="#5DD4FF"/>
  <rect x="14" y="14" width="2" height="2" fill="#5DD4FF"/>
  <rect x="16" y="14" width="2" height="2" fill="#33C3F0"/>
  <rect x="18" y="14" width="2" height="2" fill="#33C3F0"/>
  <!-- Row 7 - brain stem -->
  <rect x="12" y="16" width="2" height="2" fill="#33C3F0"/>
  <rect x="14" y="16" width="2" height="2" fill="#33C3F0"/>
  <!-- Wrench (bottom right, 8-bit style) -->
  <!-- Wrench head -->
  <rect x="20" y="16" width="2" height="2" fill="#F59E0B"/>
  <rect x="24" y="16" width="2" height="2" fill="#F59E0B"/>
  <rect x="20" y="18" width="2" height="2" fill="#F59E0B"/>
  <rect x="22" y="18" width="2" height="2" fill="#F59E0B"/>
  <rect x="24" y="18" width="2" height="2" fill="#F59E0B"/>
  <!-- Wrench shaft (diagonal) -->
  <rect x="18" y="20" width="2" height="2" fill="#D97706"/>
  <rect x="16" y="22" width="2" height="2" fill="#D97706"/>
  <rect x="14" y="24" width="2" height="2" fill="#D97706"/>
  <!-- Wrench bottom head -->
  <rect x="10" y="26" width="2" height="2" fill="#F59E0B"/>
  <rect x="12" y="26" width="2" height="2" fill="#F59E0B"/>
  <rect x="14" y="26" width="2" height="2" fill="#F59E0B"/>
  <rect x="10" y="28" width="2" height="2" fill="#F59E0B"/>
  <rect x="14" y="28" width="2" height="2" fill="#F59E0B"/>
</svg>
